<svg id="visual" viewBox="0 0 960 540" width="960" height="540" xmlns="http://www.w3.org/2000/svg" xmlns:xlink="http://www.w3.org/1999/xlink" version="1.1"><rect x="0" y="0" width="960" height="540" fill="#fff"></rect><path d="M0 384L20 378.3C40 372.7 80 361.3 120 347C160 332.7 200 315.3 240 305.5C280 295.7 320 293.3 360 304.5C400 315.7 440 340.3 480 339.7C520 339 560 313 600 305.8C640 298.7 680 310.3 720 323.7C760 337 800 352 840 357.5C880 363 920 359 940 357L960 355L960 0L940 0C920 0 880 0 840 0C800 0 760 0 720 0C680 0 640 0 600 0C560 0 520 0 480 0C440 0 400 0 360 0C320 0 280 0 240 0C200 0 160 0 120 0C80 0 40 0 20 0L0 0Z" fill="#f4f4f4"></path><path d="M0 275L20 270.8C40 266.7 80 258.3 120 257.8C160 257.3 200 264.7 240 269.5C280 274.3 320 276.7 360 269.5C400 262.3 440 245.7 480 249.8C520 254 560 279 600 280.2C640 281.3 680 258.7 720 256C760 253.3 800 270.7 840 280.5C880 290.3 920 292.7 940 293.8L960 295L960 0L940 0C920 0 880 0 840 0C800 0 760 0 720 0C680 0 640 0 600 0C560 0 520 0 480 0C440 0 400 0 360 0C320 0 280 0 240 0C200 0 160 0 120 0C80 0 40 0 20 0L0 0Z" fill="#ededed"></path><path d="M0 166L20 171.2C40 176.3 80 186.7 120 189.5C160 192.3 200 187.7 240 191.5C280 195.3 320 207.7 360 218.7C400 229.7 440 239.3 480 235.3C520 231.3 560 213.7 600 204.3C640 195 680 194 720 202.5C760 211 800 229 840 225.8C880 222.7 920 198.3 940 186.2L960 174L960 0L940 0C920 0 880 0 840 0C800 0 760 0 720 0C680 0 640 0 600 0C560 0 520 0 480 0C440 0 400 0 360 0C320 0 280 0 240 0C200 0 160 0 120 0C80 0 40 0 20 0L0 0Z" fill="#e7e7e7"></path><path d="M0 182L20 171.7C40 161.3 80 140.7 120 132.8C160 125 200 130 240 128.3C280 126.7 320 118.3 360 113.7C400 109 440 108 480 113C520 118 560 129 600 130.3C640 131.7 680 123.3 720 123C760 122.7 800 130.3 840 129.7C880 129 920 120 940 115.5L960 111L960 0L940 0C920 0 880 0 840 0C800 0 760 0 720 0C680 0 640 0 600 0C560 0 520 0 480 0C440 0 400 0 360 0C320 0 280 0 240 0C200 0 160 0 120 0C80 0 40 0 20 0L0 0Z" fill="#e1e1e1"></path><path d="M0 69L20 68.5C40 68 80 67 120 71.3C160 75.7 200 85.3 240 83.5C280 81.7 320 68.3 360 63C400 57.7 440 60.3 480 65.5C520 70.7 560 78.3 600 82.2C640 86 680 86 720 81.7C760 77.3 800 68.7 840 69.5C880 70.3 920 80.7 940 85.8L960 91L960 0L940 0C920 0 880 0 840 0C800 0 760 0 720 0C680 0 640 0 600 0C560 0 520 0 480 0C440 0 400 0 360 0C320 0 280 0 240 0C200 0 160 0 120 0C80 0 40 0 20 0L0 0Z" fill="#dbdbdb"></path></svg>