<svg id="visual" viewBox="0 0 960 540" width="960" height="540" xmlns="http://www.w3.org/2000/svg" xmlns:xlink="http://www.w3.org/1999/xlink" version="1.1"><rect x="0" y="0" width="960" height="540" fill="#fff"></rect><path d="M0 310L20 317.8C40 325.7 80 341.3 120 337.2C160 333 200 309 240 314.3C280 319.7 320 354.3 360 368.8C400 383.3 440 377.7 480 365.2C520 352.7 560 333.3 600 327.7C640 322 680 330 720 334.5C760 339 800 340 840 336.3C880 332.7 920 324.3 940 320.2L960 316L960 0L940 0C920 0 880 0 840 0C800 0 760 0 720 0C680 0 640 0 600 0C560 0 520 0 480 0C440 0 400 0 360 0C320 0 280 0 240 0C200 0 160 0 120 0C80 0 40 0 20 0L0 0Z" fill="#125ec0"></path><path d="M0 318L20 311.7C40 305.3 80 292.7 120 277C160 261.3 200 242.7 240 238.7C280 234.7 320 245.3 360 260.5C400 275.7 440 295.3 480 296C520 296.7 560 278.3 600 266C640 253.7 680 247.3 720 248C760 248.7 800 256.3 840 264.8C880 273.3 920 282.7 940 287.3L960 292L960 0L940 0C920 0 880 0 840 0C800 0 760 0 720 0C680 0 640 0 600 0C560 0 520 0 480 0C440 0 400 0 360 0C320 0 280 0 240 0C200 0 160 0 120 0C80 0 40 0 20 0L0 0Z" fill="#306dcd"></path><path d="M0 172L20 176.2C40 180.3 80 188.7 120 189.5C160 190.3 200 183.7 240 181.2C280 178.7 320 180.3 360 193.2C400 206 440 230 480 236.7C520 243.3 560 232.7 600 226.2C640 219.7 680 217.3 720 214.2C760 211 800 207 840 200.5C880 194 920 185 940 180.5L960 176L960 0L940 0C920 0 880 0 840 0C800 0 760 0 720 0C680 0 640 0 600 0C560 0 520 0 480 0C440 0 400 0 360 0C320 0 280 0 240 0C200 0 160 0 120 0C80 0 40 0 20 0L0 0Z" fill="#457cdb"></path><path d="M0 182L20 175C40 168 80 154 120 154C160 154 200 168 240 169.3C280 170.7 320 159.3 360 154.3C400 149.3 440 150.7 480 146.8C520 143 560 134 600 132.2C640 130.3 680 135.7 720 145.2C760 154.7 800 168.3 840 174.5C880 180.7 920 179.3 940 178.7L960 178L960 0L940 0C920 0 880 0 840 0C800 0 760 0 720 0C680 0 640 0 600 0C560 0 520 0 480 0C440 0 400 0 360 0C320 0 280 0 240 0C200 0 160 0 120 0C80 0 40 0 20 0L0 0Z" fill="#578be9"></path><path d="M0 62L20 63.3C40 64.7 80 67.3 120 65.3C160 63.3 200 56.7 240 54.3C280 52 320 54 360 64C400 74 440 92 480 99.8C520 107.7 560 105.3 600 102.3C640 99.3 680 95.7 720 87.5C760 79.3 800 66.7 840 67C880 67.3 920 80.7 940 87.3L960 94L960 0L940 0C920 0 880 0 840 0C800 0 760 0 720 0C680 0 640 0 600 0C560 0 520 0 480 0C440 0 400 0 360 0C320 0 280 0 240 0C200 0 160 0 120 0C80 0 40 0 20 0L0 0Z" fill="#699bf7"></path></svg>